<svg data-v-0dd9719b="" version="1.0" xmlns="http://www.w3.org/2000/svg" xmlns:xlink="http://www.w3.org/1999/xlink" width="100%" height="100%" viewBox="0 0 340.000000 250.000000" preserveAspectRatio="xMidYMid meet" color-interpolation-filters="sRGB" style="margin: auto;"> <rect data-v-0dd9719b="" x="0" y="0" width="100%" height="100%" fill="#fff" fill-opacity="1" class="background"></rect> <rect data-v-0dd9719b="" x="0" y="0" width="100%" height="100%" fill="url(#watermark)" fill-opacity="1" class="watermarklayer"></rect> <g data-v-0dd9719b="" fill="#333" class="icon-text-wrapper icon-svg-group iconsvg" transform="translate(48.51499938964844,98.80375099182129)"><g class="iconsvg-imagesvg" transform="translate(0,2.422574996948242)"><g><rect fill="#333" fill-opacity="0" stroke-width="2" x="0" y="0" width="60" height="47.54734923528013" class="image-rect"></rect> <svg x="0" y="0" width="60" height="47.54734923528013" filtersec="colorsb989654389" class="image-svg-svg primary" style="overflow: visible;"><svg xmlns="http://www.w3.org/2000/svg" viewBox="0.005645751953125 0 675.6468505859375 535.4199829101562"><path d="M347.07 408.89c140.36 45.22 287.19 48.17 287.19 48.17S555.94 535.42 439 535.42-23.39 385.17 1.26 260.72s274.07-89.86 347.61-78.3c109.44 17.16 360.5 103 323 192s-313.29 11.81-313.29 11.81V89.05s33.57-.16 65.45 12.88 40.77 19.31 40.77 19.31v213.51s94.41 30.58 107.28-4-109.43-100-226.37-115.07-232.94-19.08-250 38.63c-13.99 47.18 119.97 112.25 251.36 154.58z" fill="#2ca6e0"></path><path d="M211.2 0s86.91 7.51 140.55 17.17S464.41 51.5 464.41 51.5v49.36s-15-7.52-60.09-20.39-66.52-9.66-66.52-9.66v310.07l-126.6-50.16z" fill="#036eb7"></path></svg></svg> <!----></g></g> <g transform="translate(67,0)"><g data-gra="path-name" fill-rule="" class="tp-name iconsvg-namesvg" transform="translate(0,0)"><g transform="scale(1)"><g><path d="M10.99-26.33L2.92-26.33Q2.43-26.33 2.16-26.66 1.89-26.99 1.89-27.36L1.89-27.36Q1.89-27.73 2.16-28.06 2.43-28.39 2.92-28.39L2.92-28.39 10.99-28.39 10.99-31.89Q10.99-32.38 11.31-32.65 11.64-32.91 12.01-32.91L12.01-32.91Q12.38-32.91 12.71-32.65 13.04-32.38 13.04-31.89L13.04-31.89 13.04-28.39 23.04-28.39 23.04-31.89Q23.04-32.38 23.37-32.65 23.7-32.91 24.07-32.91L24.07-32.91Q24.44-32.91 24.77-32.65 25.1-32.38 25.1-31.89L25.1-31.89 25.1-28.39 33.12-28.39Q33.61-28.39 33.88-28.06 34.15-27.73 34.15-27.36L34.15-27.36Q34.15-26.99 33.88-26.66 33.61-26.33 33.12-26.33L33.12-26.33 25.1-26.33 25.1-23.41Q25.1-22.92 24.77-22.65 24.44-22.38 24.07-22.38L24.07-22.38Q23.7-22.38 23.37-22.65 23.04-22.92 23.04-23.41L23.04-23.41 23.04-26.33 13.04-26.33 13.04-23.53Q13.04-23.04 12.71-22.77 12.38-22.51 12.01-22.51L12.01-22.51Q11.64-22.51 11.31-22.77 10.99-23.04 10.99-23.53L10.99-23.53 10.99-26.33ZM20.78-18.35Q27.48-18.35 27.15-12.14L27.15-12.14 26.58-2.3Q26.45-0.16 25.53 0.86 24.6 1.89 23.41 2.43L23.41 2.43Q23.33 2.47 23.02 2.59 22.71 2.72 22.3 2.72L22.3 2.72Q21.85 2.72 21.56 2.39 21.27 2.06 21.27 1.69L21.27 1.69Q21.27 0.95 22.05 0.66L22.05 0.66Q22.92 0.37 23.37 0.06 23.82-0.25 24.17-1.05 24.52-1.85 24.6-3.41L24.6-3.41 25.1-11.85Q25.22-14.19 24.25-15.24 23.29-16.29 20.37-16.29L20.37-16.29 16.25-16.29Q16.13-11.77 15.26-8.39 14.4-5.02 12.08-1.95 9.75 1.11 5.43 3.87L5.43 3.87Q5.1 4.07 4.77 4.07L4.77 4.07Q4.24 4.07 3.95 3.66L3.95 3.66Q3.7 3.33 3.7 2.96L3.7 2.96Q3.7 2.51 4.16 2.22L4.16 2.22Q8.31-0.37 10.47-3.31 12.63-6.25 13.37-9.28 14.11-12.3 14.19-16.29L14.19-16.29 4.48-16.29Q3.99-16.29 3.72-16.62 3.46-16.95 3.46-17.32L3.46-17.32Q3.46-17.69 3.72-18.02 3.99-18.35 4.48-18.35L4.48-18.35 14.24-18.35 14.32-21.35Q14.32-21.85 14.65-22.09 14.98-22.34 15.39-22.34L15.39-22.34Q15.76-22.34 16.07-22.05 16.37-21.76 16.37-21.31L16.37-21.31 16.29-18.35 20.78-18.35ZM4.77-4.69Q4.44-4.24 3.91-4.24L3.91-4.24Q3.66-4.24 3.33-4.4L3.33-4.4Q2.84-4.73 2.84-5.27L2.84-5.27Q2.84-5.6 3.04-5.84L3.04-5.84Q5.64-9.22 7.61-12.84L7.61-12.84Q7.86-13.29 8.39-13.29L8.39-13.29Q8.76-13.29 9.05-13.08L9.05-13.08Q9.46-12.75 9.46-12.26L9.46-12.26Q9.46-11.93 9.3-11.64L9.3-11.64Q7.08-7.61 4.77-4.69L4.77-4.69ZM34.15-6.62Q34.48-6.29 34.48-5.88L34.48-5.88Q34.48-5.47 34.15-5.14L34.15-5.14Q33.78-4.85 33.41-4.85L33.41-4.85Q33-4.85 32.71-5.14L32.71-5.14 27.89-9.96Q27.61-10.24 27.61-10.61L27.61-10.61Q27.61-11.15 27.94-11.4L27.94-11.4Q28.22-11.68 28.64-11.68L28.64-11.68Q29.05-11.68 29.38-11.36L29.38-11.36 34.15-6.62ZM39.13 2.02Q41.6-1.11 42.75-3.19 43.9-5.27 44.6-8.93 45.3-12.59 45.3-18.88L45.3-18.88 45.3-31.52Q45.3-32.01 45.63-32.28 45.96-32.54 46.33-32.54L46.33-32.54Q46.7-32.54 47.03-32.28 47.36-32.01 47.36-31.52L47.36-31.52 47.36-18.06Q47.36-10.9 45.89-5.99 44.43-1.07 40.73 3.21L40.73 3.21Q40.4 3.62 39.95 3.62L39.95 3.62Q39.62 3.62 39.33 3.41L39.33 3.41Q38.92 3.13 38.92 2.63L38.92 2.63Q38.92 2.26 39.13 2.02L39.13 2.02ZM65.29 2.8L65.29-31.52Q65.29-32.01 65.62-32.28 65.95-32.54 66.32-32.54L66.32-32.54Q66.69-32.54 67.02-32.28 67.35-32.01 67.35-31.52L67.35-31.52 67.35 2.8Q67.35 3.29 67.02 3.56 66.69 3.83 66.32 3.83L66.32 3.83Q65.95 3.83 65.62 3.56 65.29 3.29 65.29 2.8L65.29 2.8ZM55.13 1.97L55.13-30.53Q55.13-31.02 55.46-31.29 55.79-31.56 56.16-31.56L56.16-31.56Q56.53-31.56 56.86-31.29 57.19-31.02 57.19-30.53L57.19-30.53 57.19 1.97Q57.19 2.47 56.86 2.74 56.53 3 56.16 3L56.16 3Q55.79 3 55.46 2.74 55.13 2.47 55.13 1.97L55.13 1.97ZM40.11-11.27Q39.91-10.49 39.13-10.49L39.13-10.49Q38.76-10.49 38.39-10.88 38.02-11.27 38.18-11.77L38.18-11.77Q39.87-17.03 40.9-22.26L40.9-22.26Q40.94-22.63 41.25-22.83 41.55-23.04 41.88-23.04L41.88-23.04Q42.34-23.04 42.67-22.67 42.99-22.3 42.87-21.72L42.87-21.72Q41.92-16.95 40.11-11.27L40.11-11.27ZM52-11.97L48.43-21.27Q48.34-21.52 48.34-21.64L48.34-21.64Q48.34-22.01 48.55-22.26 48.75-22.51 49.04-22.59L49.04-22.59Q49.29-22.67 49.41-22.67L49.41-22.67Q50.11-22.67 50.36-21.97L50.36-21.97 53.9-12.71Q53.98-12.47 53.98-12.34L53.98-12.34Q53.98-12.01 53.77-11.75 53.57-11.48 53.32-11.4L53.32-11.4Q53.07-11.31 52.95-11.31L52.95-11.31Q52.21-11.31 52-11.97L52-11.97ZM62.08-11.97L58.46-21.23 58.38-21.6Q58.38-21.93 58.57-22.2 58.75-22.46 59.04-22.55L59.04-22.55Q59.29-22.63 59.45-22.63L59.45-22.63Q60.19-22.63 60.4-21.97L60.4-21.97 63.98-12.71Q64.06-12.47 64.06-12.34L64.06-12.34Q64.06-12.01 63.85-11.75 63.65-11.48 63.4-11.4L63.4-11.4Q63.15-11.31 63.03-11.31L63.03-11.31Q62.29-11.31 62.08-11.97L62.08-11.97ZM88.42-7.08Q88.95-7.12 89.26-6.77 89.57-6.42 89.57-6.01L89.57-6.01Q89.57-5.64 89.36-5.35 89.16-5.06 88.75-5.02L88.75-5.02 83.89-4.32 83.89 3.13Q83.89 3.62 83.56 3.89 83.23 4.16 82.86 4.16L82.86 4.16Q82.49 4.16 82.16 3.89 81.83 3.62 81.83 3.13L81.83 3.13 81.83-4.03 74.63-2.96Q74.1-2.92 73.79-3.27 73.48-3.62 73.48-4.03L73.48-4.03Q73.48-4.4 73.71-4.69 73.93-4.98 74.35-5.02L74.35-5.02 81.83-6.13 81.83-13.08 77.23-13.08Q76.28-13.08 75.72-13.66 75.17-14.24 75.17-15.18L75.17-15.18Q75.17-15.88 75.37-16.37L75.37-16.37Q77.27-21.64 78.38-25.39L78.38-25.39 74.88-25.39Q74.39-25.39 74.12-25.71 73.85-26.04 73.85-26.41L73.85-26.41Q73.85-26.78 74.12-27.11 74.39-27.44 74.88-27.44L74.88-27.44 78.95-27.44Q79.9-30.61 80.35-32.54L80.35-32.54Q80.43-32.91 80.7-33.1 80.97-33.28 81.3-33.28L81.3-33.28Q81.71-33.28 82.02-33 82.33-32.71 82.33-32.21L82.33-32.21Q82.33-32.01 82.29-31.89L82.29-31.89Q81.55-28.92 81.09-27.44L81.09-27.44 87.8-27.44Q88.29-27.44 88.56-27.11 88.83-26.78 88.83-26.41L88.83-26.41Q88.83-26.04 88.56-25.71 88.29-25.39 87.8-25.39L87.8-25.39 80.52-25.39Q78.99-20.41 77.43-15.96L77.43-15.96Q77.31-15.68 77.31-15.43L77.31-15.43Q77.31-15.26 77.47-15.2 77.64-15.14 78.05-15.14L78.05-15.14 81.83-15.14 81.83-21.68Q81.83-22.18 82.16-22.44 82.49-22.71 82.86-22.71L82.86-22.71Q83.23-22.71 83.56-22.44 83.89-22.18 83.89-21.68L83.89-21.68 83.89-15.14 87.31-15.14Q87.8-15.14 88.07-14.81 88.33-14.48 88.33-14.11L88.33-14.11Q88.33-13.74 88.07-13.41 87.8-13.08 87.31-13.08L87.31-13.08 83.89-13.08 83.89-6.42 88.42-7.08ZM105.33-15.31Q105.82-15.31 106.09-14.98 106.35-14.65 106.35-14.28L106.35-14.28Q106.35-13.91 106.09-13.58 105.82-13.25 105.33-13.25L105.33-13.25 98.21-13.25 98.21 2.88Q98.21 3.37 97.88 3.64 97.55 3.91 97.18 3.91L97.18 3.91Q96.81 3.91 96.48 3.64 96.15 3.37 96.15 2.88L96.15 2.88 96.15-13.25 90.06-13.25Q89.57-13.25 89.3-13.58 89.03-13.91 89.03-14.28L89.03-14.28Q89.03-14.65 89.3-14.98 89.57-15.31 90.06-15.31L90.06-15.31 96.15-15.31 96.15-27.36 90.51-27.36Q90.02-27.36 89.75-27.69 89.49-28.02 89.49-28.39L89.49-28.39Q89.49-28.76 89.75-29.09 90.02-29.42 90.51-29.42L90.51-29.42 104.13-29.42Q104.63-29.42 104.89-29.09 105.16-28.76 105.16-28.39L105.16-28.39Q105.16-28.02 104.89-27.69 104.63-27.36 104.13-27.36L104.13-27.36 98.21-27.36 98.21-15.31 105.33-15.31ZM114.09-27.44Q113.6-27.44 113.33-27.77 113.06-28.1 113.06-28.47L113.06-28.47Q113.06-28.84 113.33-29.17 113.6-29.5 114.09-29.5L114.09-29.5 138.03-29.5Q138.53-29.5 138.8-29.17 139.06-28.84 139.06-28.47L139.06-28.47Q139.06-28.1 138.8-27.77 138.53-27.44 138.03-27.44L138.03-27.44 114.09-27.44ZM140.96-16.83L130.63-16.83 130.63-4.32Q130.63-2.63 130.9-1.73 131.16-0.82 132.09-0.35 133.01 0.12 134.91 0.12L134.91 0.12Q137.13 0.12 137.99-0.25 138.86-0.62 139.47-1.4L139.47-1.4Q139.84-1.89 140.34-1.89L140.34-1.89Q140.83-1.89 141.08-1.56 141.33-1.23 141.33-0.82L141.33-0.82Q141.33-0.53 141.2-0.29L141.2-0.29Q139.72 2.18 135.69 2.18L135.69 2.18 134 2.18Q128.57 2.18 128.57-3.09L128.57-3.09 128.57-16.83 121.45-16.83Q121.41-11.27 121-8.35 120.59-5.43 118.7-2.53 116.8 0.37 112.48 3.41L112.48 3.41Q112.11 3.66 111.74 3.66L111.74 3.66Q111.29 3.66 111.04 3.33L111.04 3.33Q110.8 3.09 110.8 2.63L110.8 2.63Q110.8 2.14 111.25 1.81L111.25 1.81Q115.2-0.99 116.93-3.54 118.66-6.09 119.05-8.8 119.44-11.52 119.48-16.83L119.48-16.83 111.17-16.83Q110.67-16.83 110.41-17.16 110.14-17.49 110.14-17.86L110.14-17.86Q110.14-18.23 110.41-18.56 110.67-18.88 111.17-18.88L111.17-18.88 140.96-18.88Q141.45-18.88 141.72-18.56 141.98-18.23 141.98-17.86L141.98-17.86Q141.98-17.49 141.72-17.16 141.45-16.83 140.96-16.83L140.96-16.83ZM176.83-23.57L174.73-23.57Q174.28-17.86 173.11-13.56 171.94-9.26 169.88-5.76L169.88-5.76Q172.55-1.69 177.12 1.85L177.12 1.85Q177.49 2.18 177.49 2.67L177.49 2.67Q177.49 3.09 177.28 3.29L177.28 3.29Q176.91 3.66 176.46 3.66L176.46 3.66Q176.13 3.66 175.8 3.41L175.8 3.41Q171.65 0 168.81-4.07L168.81-4.07Q166.18-0.16 161.49 3.62L161.49 3.62Q161.16 3.91 160.79 3.91L160.79 3.91Q160.33 3.91 160 3.5L160 3.5Q159.8 3.29 159.8 2.92L159.8 2.92Q159.8 2.43 160.21 2.06L160.21 2.06Q165.15-2.02 167.7-5.84L167.7-5.84Q165.02-10.37 163.87-15.84L163.87-15.84Q163.79-16.37 164.06-16.75 164.32-17.12 164.82-17.12L164.82-17.12Q165.68-17.12 165.81-16.13L165.81-16.13Q166.83-11.27 168.77-7.65L168.77-7.65Q170.41-10.74 171.34-14.54 172.27-18.35 172.68-23.57L172.68-23.57 166.01-23.57 165.89-23.57Q164.82-20.74 163.42-18.31L163.42-18.31Q163.13-17.81 162.51-17.81L162.51-17.81Q162.23-17.81 161.98-17.94L161.98-17.94Q161.44-18.23 161.44-18.8L161.44-18.8Q161.44-19.05 161.57-19.3L161.57-19.3Q163.3-22.18 164.22-24.91 165.15-27.65 166.05-31.68L166.05-31.68Q166.18-32.17 166.57-32.36 166.96-32.54 167.33-32.42L167.33-32.42Q167.7-32.3 167.92-31.99 168.15-31.68 168.07-31.23L168.07-31.23Q167.25-27.69 166.59-25.63L166.59-25.63 176.83-25.63Q177.33-25.63 177.59-25.3 177.86-24.97 177.86-24.6L177.86-24.6Q177.86-24.23 177.59-23.9 177.33-23.57 176.83-23.57L176.83-23.57ZM161.2-1.11Q161.2-0.74 160.95-0.45 160.7-0.16 160.25-0.12L160.25-0.12 146.39 1.52Q145.89 1.56 145.6 1.21 145.32 0.86 145.32 0.45L145.32 0.45Q145.32 0.08 145.56-0.21 145.81-0.49 146.26-0.53L146.26-0.53 152.76-1.32 152.76-8.23 147.33-8.23Q146.84-8.23 146.57-8.56 146.3-8.89 146.3-9.26L146.3-9.26Q146.3-9.63 146.57-9.96 146.84-10.29 147.33-10.29L147.33-10.29 152.76-10.29 152.76-16.58 147.33-16.25Q146.84-16.21 146.53-16.56 146.22-16.91 146.22-17.28L146.22-17.28Q146.22-17.65 146.47-17.96 146.72-18.27 147.17-18.31L147.17-18.31Q149.68-22.88 152.06-27.48L152.06-27.48 146.84-27.48Q146.35-27.48 146.08-27.81 145.81-28.14 145.81-28.51L145.81-28.51Q145.81-28.88 146.08-29.21 146.35-29.54 146.84-29.54L146.84-29.54 160.79-29.54Q161.28-29.54 161.55-29.21 161.81-28.88 161.81-28.51L161.81-28.51Q161.81-28.14 161.55-27.81 161.28-27.48 160.79-27.48L160.79-27.48 154.33-27.48Q154.33-27.4 154.29-27.36L154.29-27.36Q152.8-24.4 149.6-18.47L149.6-18.47 157.78-18.97 155.89-22.55Q155.77-22.79 155.77-23.04L155.77-23.04Q155.77-23.66 156.3-23.95L156.3-23.95Q156.51-24.07 156.75-24.07L156.75-24.07Q157.41-24.07 157.7-23.53L157.7-23.53 161.2-16.99Q161.32-16.75 161.32-16.54L161.32-16.54Q161.32-15.92 160.75-15.59L160.75-15.59Q160.5-15.47 160.25-15.47L160.25-15.47Q159.63-15.47 159.35-16.05L159.35-16.05 158.85-16.99 154.82-16.7 154.82-10.29 160.25-10.29Q160.75-10.29 161.01-9.96 161.28-9.63 161.28-9.26L161.28-9.26Q161.28-8.89 161.01-8.56 160.75-8.23 160.25-8.23L160.25-8.23 154.82-8.23 154.82-1.56 160.13-2.18Q160.62-2.22 160.91-1.87 161.2-1.52 161.2-1.11L161.2-1.11Z" transform="translate(-1.8899999856948853, 33.279998779296875)"></path></g> <!----> <!----> <!----> <!----> <!----> <!----> <!----></g></g> <g data-gra="path-slogan" fill-rule="" class="tp-slogan iconsvg-slogansvg" fill="#333" transform="translate(19.124176025390625,43.439998626708984)"><!----> <!----> <g transform="scale(1, 1)"><g transform="scale(1)"><path d="M7.17-6.09L7.17-6.09L6.09-6.09Q6-7.73 3.94-7.83L3.94-7.83Q2.02-7.78 2.02-6.33L2.02-6.33Q2.02-5.39 3.05-5.25L3.05-5.25L5.48-4.69Q7.41-4.22 7.41-2.34L7.41-2.34Q7.36 0.05 4.03 0.14L4.03 0.14Q2.20 0.14 1.45-0.61L1.45-0.61Q0.52-1.31 0.56-2.77L0.56-2.77L1.69-2.77Q1.73-0.80 4.03-0.75L4.03-0.75Q6.28-0.80 6.33-2.20L6.33-2.20Q6.52-3.38 4.45-3.75L4.45-3.75L2.67-4.13Q0.84-4.64 0.84-6.19L0.84-6.19Q0.98-8.72 3.84-8.81L3.84-8.81Q7.08-8.81 7.17-6.09ZM14.53-3.19L14.53-8.58L15.70-8.58L15.70-3.05Q15.56 0.05 12.19 0.14L12.19 0.14Q9.05 0.05 8.91-2.86L8.91-2.86L8.91-8.58L10.08-8.58L10.08-3.19Q10.13-0.84 12.23-0.80L12.23-0.80Q14.53-0.84 14.53-3.19L14.53-3.19ZM18.33-1.03L23.63-1.03L23.63 0L16.88 0L16.88-0.94L22.13-7.59L17.25-7.59L17.25-8.58L23.63-8.58L23.63-7.59L18.33-1.03ZM25.92-5.06L30.42-5.06L30.42-8.58L31.59-8.58L31.59 0L30.42 0L30.42-3.98L25.92-3.98L25.92 0L24.75 0L24.75-8.58L25.92-8.58L25.92-5.06ZM40.17-4.27L40.17-4.27Q39.98-7.64 37.17-7.83L37.17-7.83Q34.31-7.69 34.17-4.27L34.17-4.27Q34.31-0.94 37.17-0.80L37.17-0.80Q39.98-0.98 40.17-4.27ZM41.34-4.27L41.34-4.27Q41.06 0 37.17 0.14L37.17 0.14Q33.23 0 32.95-4.27L32.95-4.27Q33.19-8.72 37.17-8.81L37.17-8.81Q41.06-8.67 41.34-4.27ZM48.38-3.19L48.38-8.58L49.55-8.58L49.55-3.05Q49.41 0.05 46.03 0.14L46.03 0.14Q42.89 0.05 42.75-2.86L42.75-2.86L42.75-8.58L43.92-8.58L43.92-3.19Q43.97-0.84 46.08-0.80L46.08-0.80Q48.38-0.84 48.38-3.19L48.38-3.19ZM61.41-8.58L58.50-4.41L61.55 0L60.09 0L57.75-3.52L55.41 0L54 0L57.09-4.41L54.19-8.58L55.64-8.58L57.80-5.30L60-8.58L61.41-8.58ZM68.30-3.19L68.30-8.58L69.47-8.58L69.47-3.05Q69.33 0.05 65.95 0.14L65.95 0.14Q62.81 0.05 62.67-2.86L62.67-2.86L62.67-8.58L63.84-8.58L63.84-3.19Q63.89-0.84 66-0.80L66-0.80Q68.30-0.84 68.30-3.19L68.30-3.19ZM76.92 0L76.08-2.48L72.61-2.48L71.72 0L70.55 0L73.78-8.58L75.09-8.58L78.19 0L76.92 0ZM74.34-7.31L72.98-3.52L75.66-3.52L74.39-7.31L74.34-7.31ZM80.63-8.58L84.94-1.64L84.94-8.58L86.06-8.58L86.06 0L84.75 0L80.39-6.94L80.34-6.94L80.34 0L79.22 0L79.22-8.58L80.63-8.58ZM94.78-8.58L91.55-3.47L91.55 0L90.38 0L90.38-3.47L87.14-8.58L88.50-8.58L90.94-4.45L93.42-8.58L94.78-8.58ZM101.48-3.19L101.48-8.58L102.66-8.58L102.66-3.05Q102.52 0.05 99.14 0.14L99.14 0.14Q96 0.05 95.86-2.86L95.86-2.86L95.86-8.58L97.03-8.58L97.03-3.19Q97.08-0.84 99.19-0.80L99.19-0.80Q101.48-0.84 101.48-3.19L101.48-3.19ZM110.11 0L109.27-2.48L105.80-2.48L104.91 0L103.73 0L106.97-8.58L108.28-8.58L111.38 0L110.11 0ZM107.53-7.31L106.17-3.52L108.84-3.52L107.58-7.31L107.53-7.31ZM113.81-8.58L118.13-1.64L118.13-8.58L119.25-8.58L119.25 0L117.94 0L113.58-6.94L113.53-6.94L113.53 0L112.41 0L112.41-8.58L113.81-8.58ZM121.88-1.03L127.17-1.03L127.17 0L120.42 0L120.42-0.94L125.67-7.59L120.80-7.59L120.80-8.58L127.17-8.58L127.17-7.59L121.88-1.03ZM129.47-5.06L133.97-5.06L133.97-8.58L135.14-8.58L135.14 0L133.97 0L133.97-3.98L129.47-3.98L129.47 0L128.30 0L128.30-8.58L129.47-8.58L129.47-5.06ZM137.11-8.58L138.28-8.58L138.28 0L137.11 0L137.11-8.58Z" transform="translate(-0.5602678571428572, 8.8125)"></path></g></g></g></g></g><defs v-gra="od"></defs></svg>